<?xml version="1.0" encoding="utf-8"?>
<!-- Generator: Adobe Illustrator 16.0.4, SVG Export Plug-In . SVG Version: 6.00 Build 0)  -->
<!DOCTYPE svg PUBLIC "-//W3C//DTD SVG 1.1//EN" "http://www.w3.org/Graphics/SVG/1.1/DTD/svg11.dtd">
<svg version="1.1" id="Calque_1" xmlns:sketch="http://www.bohemiancoding.com/sketch/ns"
	 xmlns="http://www.w3.org/2000/svg" xmlns:xlink="http://www.w3.org/1999/xlink" x="0px" y="0px" width="120px" height="120px"
	 viewBox="0 0 120 120" enable-background="new 0 0 120 120" xml:space="preserve">
<title>svg-workshop</title>
<description>Created with Sketch (http://www.bohemiancoding.com/sketch)</description>
<g id="Page-1" sketch:type="MSPage">
	<g id="noun_53027_cc" transform="translate(13.000000, 13.000000)" sketch:type="MSLayerGroup">
		<path id="Shape" sketch:type="MSShapeGroup" fill="none" d="M70,6.036L5,71.035V85h7.5h6.464l65.001-65L70,6.036z"/>
		<path id="Shape_1_" sketch:type="MSShapeGroup" fill="#FFFFFF" d="M87.5,85H26.035l63.232-63.232c0.977-0.976,0.977-2.559,0-3.535
			l-17.5-17.5c-0.979-0.977-2.561-0.977-3.535,0l-67.5,67.5C0.263,68.701,0,69.337,0,70v17.5C0,88.881,1.119,90,2.5,90h85
			c1.381,0,2.5-1.119,2.5-2.5S88.881,85,87.5,85L87.5,85z M5,85V71.035l65-65L83.965,20l-65,65H5L5,85z"/>
	</g>
</g>
</svg>
